<svg width="252" height="252" xmlns="http://www.w3.org/2000/svg" xmlns:xlink="http://www.w3.org/1999/xlink" xml:space="preserve" overflow="hidden"><defs><clipPath id="clip0"><rect x="1310" y="536" width="252" height="252"/></clipPath></defs><g clip-path="url(#clip0)" transform="translate(-1310 -536)"><path d="M1313 662C1313 593.517 1368.52 538 1437 538 1505.48 538 1561 593.517 1561 662 1561 730.483 1505.48 786 1437 786 1368.52 786 1313 730.483 1313 662Z" fill="#006068" fill-rule="evenodd" fill-opacity="1"/><path d="M1500 691 1374 691 1374 614 1500 614 1500 691ZM1376.56 688.514 1497.51 688.514 1497.51 616.788 1376.56 616.788 1376.56 688.514Z" fill="#FFFFFF" fill-rule="evenodd" fill-opacity="1"/><path d="M1437.5 611C1436.25 611 1435 610.2 1435 609.133 1435 607.8 1436.25 607 1437.5 607 1438.75 607 1440 607.8 1440 609.133 1440 610.2 1438.75 611 1437.5 611ZM1437.19 609.133C1437.19 609.133 1437.5 609.133 1437.5 609.133L1437.19 609.133Z" fill="#FFFFFF" fill-rule="evenodd" fill-opacity="1"/><rect x="1413" y="701" width="47.9998" height="2.00006" fill="#FFFFFF" fill-opacity="1"/><path d="M1503.79 604.303C1507.22 604.303 1510.02 606.798 1510.02 610.229 1510.02 694.755 1510.02 694.755 1510.02 694.755 1510.02 698.186 1507.22 700.993 1503.79 700.993 1459.89 700.993 1459.89 700.993 1459.89 700.993 1466.11 724.698 1466.11 724.698 1466.11 724.698 1407.89 724.698 1407.89 724.698 1407.89 724.698 1414.43 700.993 1414.43 700.993 1414.43 700.993 1370.52 700.993 1370.52 700.993 1370.52 700.993 1367.1 700.993 1364.29 698.186 1364.29 694.755 1364.29 610.229 1364.29 610.229 1364.29 610.229 1364.29 606.798 1367.1 604.303 1370.52 604.303 1503.79 604.303 1503.79 604.303 1503.79 604.303M1503.79 599C1370.52 599 1370.52 599 1370.52 599 1364.29 599 1359 603.991 1359 610.229 1359 694.755 1359 694.755 1359 694.755 1359 700.993 1364.29 706.295 1370.52 706.295 1407.57 706.295 1407.57 706.295 1407.57 706.295 1402.9 723.45 1402.9 723.45 1402.9 723.45 1401.35 730 1401.35 730 1401.35 730 1407.89 730 1407.89 730 1407.89 730 1466.11 730 1466.11 730 1466.11 730 1472.96 730 1472.96 730 1472.96 730 1471.1 723.45 1471.1 723.45 1471.1 723.45 1466.74 706.295 1466.74 706.295 1466.74 706.295 1503.79 706.295 1503.79 706.295 1503.79 706.295 1510.02 706.295 1515 700.993 1515 694.755 1515 610.229 1515 610.229 1515 610.229 1515 603.991 1510.02 599 1503.79 599Z" fill="#FFFFFF" fill-rule="evenodd" fill-opacity="1"/><path d="M1437 626C1437 626 1437 626 1437 626 1437 626 1437 626 1437 626 1437 626 1437 626 1437 626 1437 626 1437 626 1437 626 1423.25 626 1412 637.25 1412 651 1412 663.5 1412 663.5 1412 663.5 1423.25 672.562 1423.25 672.562 1423.25 672.562 1423.56 672.562 1423.56 672.562 1423.56 672.562 1423.56 679.125 1423.56 679.125 1423.56 679.125 1423.56 680.375 1424.5 681 1425.44 681 1425.44 681 1425.44 681 1425.44 681 1426.69 681 1427.63 680.062 1427.63 678.812 1427.63 677.25 1427.63 677.25 1427.63 677.25 1427.63 676.312 1428.56 675.375 1429.5 675.375 1429.5 675.375 1429.5 675.375 1429.5 675.375 1430.44 675.375 1431.06 676.312 1431.06 677.25 1431.06 679.125 1431.06 679.125 1431.06 679.125 1431.06 680.375 1432 681 1433.25 681 1433.25 681 1433.25 681 1433.25 681 1434.19 681 1435.12 680.375 1435.12 679.125 1435.12 676.937 1435.12 676.937 1435.12 676.937 1435.12 676 1436.06 675.375 1437 675.375 1437 675.375 1437 675.375 1437 675.375 1437 675.375 1437 675.375 1437 675.375 1437.94 675.375 1438.56 676 1438.56 676.937 1438.56 679.125 1438.56 679.125 1438.56 679.125 1438.56 680.375 1439.5 681 1440.75 681 1440.75 681 1440.75 681 1440.75 681 1442 681 1442.94 680.375 1442.94 679.125 1442.94 677.25 1442.94 677.25 1442.94 677.25 1442.94 676.312 1443.56 675.375 1444.5 675.375 1444.5 675.375 1444.5 675.375 1444.5 675.375 1445.44 675.375 1446.38 676.312 1446.38 677.25 1446.38 678.812 1446.38 678.812 1446.38 678.812 1446.38 680.062 1447.31 681 1448.56 681 1448.56 681 1448.56 681 1448.56 681 1449.5 681 1450.44 680.375 1450.44 679.125 1450.44 672.562 1450.44 672.562 1450.44 672.562 1450.75 672.562 1450.75 672.562 1450.75 672.562 1462 663.5 1462 663.5 1462 663.5 1462 651 1462 651 1462 651 1462 637.25 1450.75 626 1437 626ZM1426.38 662.875C1422.63 662.875 1419.81 659.75 1419.81 656 1419.81 652.25 1422.63 649.437 1426.38 649.437 1430.13 649.437 1433.25 652.25 1433.25 656 1433.25 659.75 1430.13 662.875 1426.38 662.875ZM1439.19 667.875C1437 667.875 1437 667.875 1437 667.875 1434.81 667.875 1434.81 667.875 1434.81 667.875 1433.88 667.875 1433.56 667.25 1433.88 666.312 1436.06 662.562 1436.06 662.562 1436.06 662.562 1436.38 662.25 1436.69 661.937 1437 661.937 1437.31 661.937 1437.62 662.25 1437.94 662.562 1440.12 666.312 1440.12 666.312 1440.12 666.312 1440.44 667.25 1440.12 667.875 1439.19 667.875ZM1447.31 662.875C1443.56 662.875 1440.75 659.75 1440.75 656 1440.75 652.25 1443.56 649.437 1447.31 649.437 1451.06 649.437 1454.19 652.25 1454.19 656 1454.19 659.75 1451.06 662.875 1447.31 662.875Z" fill="#FFFFFF" fill-rule="evenodd" fill-opacity="1"/></g></svg>